<?xml version="1.0" encoding="utf-8"?>
<!-- Generator: Adobe Illustrator 21.0.0, SVG Export Plug-In . SVG Version: 6.00 Build 0)  -->
<svg version="1.1" id="Camada_1" xmlns="http://www.w3.org/2000/svg" xmlns:xlink="http://www.w3.org/1999/xlink" x="0px" y="0px"
	 viewBox="0 0 1000 1000" style="enable-background:new 0 0 1000 1000;" xml:space="preserve">
<style type="text/css">
	.st0{fill:#FAEC0E;}
</style>
<path class="st0" d="M499.2,95.7c132,0,148.5,0,202.1,4.1C837.4,104,899.3,170,903.4,302c4.1,53.6,4.1,66,4.1,198s0,148.5-4.1,198
	c-4.1,132-70.1,198-202.1,202.1c-53.6,4.1-66,4.1-202.1,4.1c-132,0-148.5,0-198-4.1C165,896,103.2,830,99,698
	c-4.1-53.6-4.1-66-4.1-198s0-148.5,4.1-198c4.1-132,70.1-198,202.1-202.1C350.7,95.7,367.2,95.7,499.2,95.7z M499.2,5
	C363,5,346.5,5,297,9.1C115.5,17.4,16.5,116.4,8.3,297.9c-4.1,49.5-4.1,66-4.1,202.1s0,152.6,4.1,202.1
	C16.5,883.6,115.5,982.6,297,990.9c49.5,4.1,66,4.1,202.1,4.1s152.6,0,202.1-4.1c181.5-8.3,280.5-107.3,288.8-288.8
	c4.1-49.5,4.1-66,4.1-202.1s0-152.6-4.1-202.1C981.8,116.4,882.8,17.4,701.3,9.1C651.8,5,635.3,5,499.2,5z M499.2,244.2
	c-140.2,0-255.7,115.5-255.7,255.7S359,755.7,499.2,755.7S754.9,640.2,754.9,500S639.4,244.2,499.2,244.2z M499.2,665
	c-90.8,0-165-74.3-165-165s74.3-165,165-165s165,74.3,165,165S589.9,665,499.2,665z M763.2,178.2c-33,0-57.8,24.8-57.8,57.8
	s24.8,57.8,57.8,57.8S821,269.1,821,236S796.2,178.2,763.2,178.2z"/>
</svg>
