<?xml version="1.0" encoding="utf-8"?>
<!-- Generator: Adobe Illustrator 21.0.0, SVG Export Plug-In . SVG Version: 6.00 Build 0)  -->
<svg version="1.1" id="Camada_1" xmlns="http://www.w3.org/2000/svg" xmlns:xlink="http://www.w3.org/1999/xlink" x="0px" y="0px"
	 viewBox="0 0 771.5 669.2" style="enable-background:new 0 0 771.5 669.2;" xml:space="preserve">
<style type="text/css">
	.st0{opacity:0.3;fill:url(#SVGID_1_);enable-background:new    ;}
	.st1{fill:#91591D;}
	.st2{fill:#AD5314;}
	.st3{fill:#262626;}
	.st4{fill:url(#SVGID_2_);}
	.st5{fill:#DC6D1A;}
	.st6{fill:none;stroke:#FFFFFF;stroke-width:1.411;stroke-linecap:round;}
	.st7{fill:#F8FF3D;}
	.st8{fill:#842FF5;}
	.st9{fill:#C32D83;}
	.st10{fill:none;stroke:#73C8F8;stroke-width:0.941;}
	.st11{opacity:0.3;fill:url(#SVGID_3_);enable-background:new    ;}
	.st12{fill:url(#SVGID_4_);stroke:#73C8F8;stroke-width:2.634;}
	.st13{fill:#FFFFFF;stroke:#8AE0F8;stroke-width:2.662;}
	.st14{fill:url(#SVGID_5_);stroke:#73C8F8;stroke-width:2.634;}
	.st15{opacity:0.3;fill:#8AE0F8;enable-background:new    ;}
	.st16{opacity:0.4;}
	.st17{fill:#63A9C6;}
	.st18{opacity:0.81;fill:#8AE0F8;stroke:#FFFFFF;stroke-width:0.528;enable-background:new    ;}
	.st19{fill:#73C8F8;}
	.st20{fill:#1D86B7;}
	.st21{opacity:0.3;fill:#FFFFFF;enable-background:new    ;}
</style>
<g transform="translate(1 1)">
	
		<linearGradient id="SVGID_1_" gradientUnits="userSpaceOnUse" x1="-504.0383" y1="863.9229" x2="-502.5482" y2="863.8229" gradientTransform="matrix(38.3218 0 0 -47.6521 19502.7539 41665.3984)">
		<stop  offset="0" style="stop-color:#77CD38"/>
		<stop  offset="6.000000e-02" style="stop-color:#77CD38;stop-opacity:0.92"/>
		<stop  offset="0.47" style="stop-color:#77CD38;stop-opacity:0.43"/>
		<stop  offset="0.75" style="stop-color:#77CD38;stop-opacity:0.12"/>
		<stop  offset="0.89" style="stop-color:#77CD38;stop-opacity:0"/>
	</linearGradient>
	<path class="st0" d="M174.5,553.8c0,0,13.9,0.7,21.4-9.8c7.5-10.5,21.3-26.7,36.2-25.8c14.9,0.9,33.4-30,27.9-56.1
		c-5.5-26.1-80.3-21.2-83.9-9.5c-3.6,11.7,5.8,3.3,2.7,14.1c-3.1,10.8-6.8,15.5-6.8,15.5c1.3,2.2,4.1,3,6.4,1.8
		c4.6-1.7,12.3-6.3,14.7-6.2c2.5,0.1,1.2,23.9-3.5,37.6C184.8,529,174.5,553.8,174.5,553.8L174.5,553.8z"/>
	<path class="st1" d="M178.8,219c-7.6,5.7-14.7,8.3-18.6,5.4c-12.4-9.5-43.4-50.2-45.5-53.4c-2.2-3.1-14.2-13.3-10.3-16.4
		c3.9-3.1,6.7,2.7,9.5,2.5c2.9-0.2,5.7,0.8,9.9,8.3c4.2,7.5,8.5,6.6,21.7,20.3c13.2,13.7,10,18.3,17.9,22.2c1.8,0.9,3.7,0.3,5.4-1.3
		C171,211.5,174.4,215.8,178.8,219z"/>
	<path class="st2" d="M178.8,219c-4.3-3.2-7.7-7.4-9.9-12.3c6-5.5,12.2-22.5,19.7-31.6c9.7-11.8,16.6-8.6,16.6-8.6
		C215.4,179.1,195.9,206.5,178.8,219L178.8,219z"/>
	<ellipse class="st3" cx="222" cy="114.2" rx="40.1" ry="40.1"/>
	
		<linearGradient id="SVGID_2_" gradientUnits="userSpaceOnUse" x1="-509.5457" y1="869.1932" x2="-509.5457" y2="871.5161" gradientTransform="matrix(59.5302 0 0 -117.063 30518.1816 102306.3672)">
		<stop  offset="0" style="stop-color:#C32D83"/>
		<stop  offset="1" style="stop-color:#842FF5"/>
	</linearGradient>
	<path class="st4" d="M164.8,284.1c0,0-22.4,33.2-31,58.8c-8.6,25.6-18.7,49.2-18.2,55.6c0.5,6.4,8,11.8,12.3,18.2
		c4.3,6.4,15,17.6,21.4,24c6.4,6.4,16,15.5,15,23c-1.1,7.5-5.3,15.5-0.5,14.4c4.8-1.1,9.1-10.7,11.2-12.9c2.1-2.2-0.5-8.5-3.7-15.5
		c-3.2-6.9-8.6-29.4-16.6-37.4c-8-8-14.4-17.1-8-22.4c6.4-5.3,25.1-26.7,35.3-40.5c10.2-13.8,14.4-8.5,13.4-2.7s-6.5,31.4-7.5,44.3
		c-1.1,12.9-2.1,32.1-2.7,37.9c-0.5,5.9-3.7,20.8-4.3,27.2c-0.6,6.4-4.3,71.6-8,81.7c-3.7,10.2-3.2,18.2-1.1,18.2s8-9.1,11.2-19.8
		c3.2-10.7,9.6-34.2,15.5-45.9c5.9-11.8,6.1-32.3,8.6-40.1c4.8-15.5,33.2-57.1,42.8-90.8c9.6-33.7-0.5-56.1-0.5-56.1
		S199.6,320.4,164.8,284.1L164.8,284.1z"/>
	<path class="st5" d="M243,165.4c9.5,3.7,26.5,6.5,26.1,15c-0.5,10.7-10.2,33.7-10.2,33.7s-12.3,26.7-12.3,47
		c0.2,14.1,1,28.2,2.7,42.2c0,0-51.3,18.7-84.4-19.2c14.5-14.9,24.1-33.9,27.2-54.5c0,0-11.2-9.1-9.6-18.2c1.2-6.1,3.2-12,5.9-17.6
		l10.2-26.7c2.4-0.7,4.6-1.6,6.8-2.8c-1.4,8.4-1,16.9,1.2,25.1C206.5,189.5,226.6,170.9,243,165.4L243,165.4z"/>
	<path class="st1" d="M200.7,104.6c10.7,19.3,42.2,11.8,41.2,26.2c-1,14.4-9.6,25.6-4.3,31.5c1.6,1.4,3.5,2.5,5.5,3.1
		c-16.3,5.5-36.5,24.1-36.5,24.1c-2.2-8.2-2.6-16.8-1.3-25.2c10.5-5.5,4.9-11.8-1-15.5C197.4,144.6,179.8,121.1,200.7,104.6
		L200.7,104.6z M238.5,299c-1.8,5.8,10.5,18.4,8,21.8c-2.5,3.4-9.9-6.5-13.6-10.1c-3.7-3.6-3.5-3.9-7.5-2.2c-3.9,1.7-2.7,0,1.5-6
		c4.3-6,9.6-20.1,10.7-31.7c1.1-11.9,3.8-23.6,8.1-34.8c1.4-4.1,2-8.4,2-12.7c5.6,3.3,11.9,5.1,18.4,5.3c-1.1,5.2-2.2,9.6-2.8,12.7
		C260.5,256.9,240.4,293.1,238.5,299L238.5,299z"/>
	<path class="st2" d="M266.2,228.5c-6.5-0.2-12.8-2-18.4-5.3c-0.1-8.5-0.7-16.9-1.8-25.3c-0.5-5.6-2.4-29.4,9.5-27.4
		C276.3,173.9,270.8,207.4,266.2,228.5L266.2,228.5z"/>
	<path class="st6" d="M201.7,138.8c0,0,9.2,8.5,15.7-2.1"/>
	<path class="st7" d="M123,164.6l-15-25.6l-15.7-8.5l14.3,23.5c0,0,5-1.4,5,2.1S123,164.6,123,164.6z"/>
	<path class="st8" d="M111.4,137.2l15,24.6l-3.4,2.9l-15-25.6L111.4,137.2z"/>
	<path class="st9" d="M92.3,130.4l4.1-1.8l15,8.5l-3.4,1.8L92.3,130.4z"/>
	<path class="st10" d="M78,126.1c4.7-20.8,23.1-34.6,41.6-30.8c18.8,3.8,30.5,24.2,26.1,45.6c-0.5,2.6-1.3,5.2-2.3,7.7 M77.8,127.1
		c0-0.3,0.1-0.7,0.2-1 M6.8,216.5c-8.2-26.9-9.8-58.3-3.2-90.7 M168.6,12.2c19.3,12.1,34.4,32.1,43.8,56.6 M49.5,34.9
		C70.7,13.1,96.6,0,123-0.5 M3.5,125.8c2.4-11.7,5.8-23.1,10.1-34.2 M27.3,185.3c-4.5-18.9-4.8-38.5-0.8-57.5 M26.5,127.7
		c9.2-45.4,39.2-79.7,73.7-89"/>
	<path class="st10" d="M57.8,120.1c7.4-36.6,37.9-61.3,68.2-55.3c30.3,6,48.7,40.8,41.3,77.4c-1,5.3-2.6,10.5-4.7,15.5 M185,167.1
		c0,0,5.9-13.9,7.5-22.4"/>
	
		<linearGradient id="SVGID_3_" gradientUnits="userSpaceOnUse" x1="-517.5466" y1="870.6505" x2="-516.1701" y2="871.4534" gradientTransform="matrix(266.1166 0 0 -155.2857 138115.6563 135745.8281)">
		<stop  offset="0" style="stop-color:#77CD38"/>
		<stop  offset="0.21" style="stop-color:#77CD38;stop-opacity:0.79"/>
		<stop  offset="0.67" style="stop-color:#77CD38;stop-opacity:0.26"/>
		<stop  offset="0.89" style="stop-color:#77CD38;stop-opacity:0"/>
	</linearGradient>
	<path class="st11" d="M267.6,546.2l208.9,116.6c3.4,2,7.6,2,11.1,0l386.9-221.9c5.3-3,7.2-9.7,4.2-15c-1-1.8-2.5-3.2-4.2-4.2
		L665.7,305c-3.4-2-7.6-2-11.1,0l-387,221.9c-5.3,3-7.2,9.7-4.2,15C264.4,543.7,265.8,545.2,267.6,546.2L267.6,546.2z"/>
	
		<linearGradient id="SVGID_4_" gradientUnits="userSpaceOnUse" x1="-512.8513" y1="871.4632" x2="-512.8513" y2="873.7861" gradientTransform="matrix(103.322 0 0 -267.9889 53380.1445 234208.3594)">
		<stop  offset="0" style="stop-color:#77CD38"/>
		<stop  offset="1" style="stop-color:#73C8F8"/>
	</linearGradient>
	<path class="st12" d="M511.3,648.5l-0.2-472.8c0-6.5-3.5-12.5-9.1-15.7L296.9,44.7c-3-1.7-6.6-1.8-9.6-0.1l-16,6.4l29.3,15.7
		c0.4,107.1-0.3,385.3-0.5,446.2c0,7.4,3.9,14.1,10.3,17.8L493,633.5v23.5c0,0-1.8,7-5.3,9l17.3-8.3
		C508.8,656.1,511.3,652.5,511.3,648.5L511.3,648.5z"/>
	<path class="st13" d="M263.1,61.3c0.7,79.2-0.1,404.6-0.3,471.1c0,7.3,3.9,14.1,10.3,17.8l205.1,115.4c4.8,2.7,10.8,1,13.5-3.8
		c0.8-1.5,1.3-3.1,1.3-4.8l-0.3-472.8c0-6.5-3.5-12.5-9.1-15.8L277.9,52.6c-4.7-2.7-10.8-1.1-13.5,3.7
		C263.6,57.8,263.1,59.5,263.1,61.3L263.1,61.3z"/>
	
		<linearGradient id="SVGID_5_" gradientUnits="userSpaceOnUse" x1="-635.0903" y1="826.9888" x2="-590.713" y2="843.1294" gradientTransform="matrix(78.206 0 0 -207.7785 40313.3516 181565.7188)">
		<stop  offset="0" style="stop-color:#77CD38"/>
		<stop  offset="1" style="stop-color:#73C8F8"/>
	</linearGradient>
	<path class="st14" d="M287.2,96.2v369.6c0,5.5,2.9,10.6,7.7,13.3l163.5,91.8c3.4,1.9,7.7,0.8,9.6-2.6c0.6-1.1,0.9-2.2,0.9-3.5
		V197.3c0-5.6-3-10.8-7.8-13.6L297.8,90.1c-3.3-2-7.6-0.9-9.6,2.5C287.6,93.7,287.2,94.9,287.2,96.2L287.2,96.2z"/>
	
		<ellipse transform="matrix(0.7288 -0.6847 0.6847 0.7288 -282.5921 401.7537)" class="st15" cx="365.9" cy="557.7" rx="15" ry="22.5"/>
	<g class="st16">
		<path class="st17" d="M305,192.2v64.7c0,2.3,1.2,4.4,3.1,5.5L446.5,343c3.1,1.8,7,0.8,8.8-2.2c0.6-1,0.9-2.1,0.9-3.3l-0.9-63.5
			c0-2.3-1.3-4.4-3.3-5.5l-138.4-81.3c-2.7-1.6-6.2-0.7-7.8,2C305.3,190.1,305,191.1,305,192.2z"/>
		<path class="st18" d="M300.1,196.9v64.7c0,2.3,1.2,4.4,3.1,5.5l138.4,80.6c3.1,1.8,7,0.8,8.8-2.2c0.6-1,0.9-2.1,0.9-3.3l-0.9-63.5
			c0-2.3-1.3-4.4-3.3-5.5l-138.5-81.2c-2.8-1.5-6.3-0.6-7.8,2.2C300.4,195,300.1,195.9,300.1,196.9L300.1,196.9z"/>
		<path class="st19" d="M429.4,319.2c-0.7,0-1.4-0.2-2-0.6l-112.4-66.8c-2-1.1-2.7-3.5-1.6-5.5c1.1-2,3.5-2.7,5.5-1.6
			c0.1,0,0.1,0.1,0.2,0.1l112.4,66.9c1.9,1.1,2.6,3.6,1.5,5.5C432.2,318.5,430.8,319.3,429.4,319.2L429.4,319.2L429.4,319.2z
			 M429.4,295.6c-0.7,0-1.4-0.2-2-0.6l-38.6-23.7c-1.9-1.1-2.6-3.6-1.4-5.6s3.6-2.6,5.6-1.4l0,0l38.6,23.7c1.9,1.1,2.6,3.6,1.5,5.5
			C432.2,294.8,430.9,295.6,429.4,295.6L429.4,295.6L429.4,295.6z"/>
		<path class="st17" d="M305,287.2v64.6c0,2.3,1.2,4.4,3.1,5.5L446.5,438c3.1,1.8,7,0.8,8.8-2.2c0.6-1,0.9-2.1,0.9-3.3l-0.9-63.5
			c0-2.3-1.3-4.4-3.3-5.5l-138.4-81.2c-2.7-1.6-6.2-0.7-7.8,2C305.3,285.1,305.1,286.1,305,287.2L305,287.2z"/>
		<path class="st18" d="M300.1,291.8v64.6c0,2.3,1.2,4.4,3.1,5.5l138.4,80.7c3.1,1.8,7,0.8,8.8-2.2c0.6-1,0.9-2.1,0.9-3.3l-0.9-63.5
			c0-2.3-1.3-4.4-3.3-5.5l-138.5-81.3c-2.8-1.5-6.3-0.6-7.8,2.2C300.4,289.9,300.1,290.9,300.1,291.8L300.1,291.8z"/>
		<path class="st19" d="M429.4,391.4c-0.7,0-1.4-0.2-2-0.6l-58.1-35.3c-1.9-1.1-2.6-3.6-1.5-5.5c1.1-1.9,3.6-2.6,5.5-1.5
			c0,0,0,0,0.1,0l58.1,35.3c1.9,1.1,2.6,3.6,1.5,5.5C432.2,390.6,430.8,391.4,429.4,391.4L429.4,391.4z M429.4,414.9
			c-0.7,0-1.4-0.2-2-0.6l-107.3-64.1c-1.9-1.1-2.6-3.6-1.6-5.5c1.1-1.9,3.6-2.6,5.5-1.6c0,0,0.1,0,0.1,0.1l107.3,64.1
			c1.9,1.1,2.6,3.6,1.5,5.5C432.2,414.1,430.8,414.9,429.4,414.9L429.4,414.9z"/>
		<path class="st17" d="M305,381.7v64.7c0,2.3,1.2,4.4,3.1,5.5l138.4,80.7c3.1,1.8,7,0.8,8.8-2.2c0.6-1,0.9-2.1,0.9-3.3l-0.9-63.5
			c0-2.3-1.3-4.4-3.3-5.5l-138.4-81.3c-2.7-1.6-6.2-0.7-7.9,2C305.3,379.6,305,380.7,305,381.7L305,381.7z"/>
		<path class="st18" d="M300.1,386.4V451c0,2.3,1.2,4.4,3.1,5.5l138.4,80.6c3.1,1.8,7,0.8,8.8-2.2c0.6-1,0.9-2.1,0.9-3.3l-0.9-63.5
			c0-2.3-1.3-4.4-3.3-5.5l-138.5-81.2c-2.8-1.5-6.3-0.6-7.8,2.2C300.4,384.5,300.1,385.4,300.1,386.4L300.1,386.4z"/>
		<path class="st19" d="M429.4,487.5c-0.7,0-1.4-0.2-2-0.6l-83.8-50.4c-1.9-1.1-2.6-3.6-1.5-5.5s3.6-2.6,5.5-1.5l83.8,50.4
			c1.9,1.1,2.6,3.6,1.4,5.5C432.1,486.8,430.8,487.5,429.4,487.5L429.4,487.5L429.4,487.5z M429.4,509.7c-0.7,0-1.4-0.2-2-0.6
			l-58.1-35.3c-1.9-1.1-2.6-3.6-1.5-5.5s3.6-2.6,5.5-1.5c0,0,0,0,0.1,0l58.1,35.3c1.9,1.1,2.6,3.6,1.5,5.5
			C432.2,508.9,430.8,509.7,429.4,509.7L429.4,509.7L429.4,509.7z"/>
	</g>
	<g class="st16">
		<path class="st20" d="M438.9,224.2c-1.2,0-2.4-0.3-3.4-0.9l-24.1-14.1c-3.3-1.9-4.4-6.1-2.5-9.4c1.9-3.3,6.1-4.4,9.4-2.5
			l24.1,14.1c3.3,1.9,4.4,6.1,2.5,9.4C443.6,222.9,441.3,224.2,438.9,224.2L438.9,224.2z M391.9,196.1c-1.2,0-2.4-0.3-3.4-0.9
			l-24.1-14.2c-3.3-1.9-4.4-6.1-2.5-9.4c1.9-3.3,6.1-4.4,9.4-2.5l24.1,14.1c3.3,1.9,4.4,6.1,2.5,9.4
			C396.6,194.7,394.3,196,391.9,196.1L391.9,196.1L391.9,196.1z M346.1,169.1c-1.2,0-2.4-0.3-3.4-0.9L318.6,154
			c-3.2-2.1-4-6.3-1.9-9.5c1.9-2.9,5.7-3.9,8.8-2.3l24.1,14.2c3.3,1.9,4.4,6.1,2.5,9.4C350.8,167.9,348.5,169.2,346.1,169.1
			L346.1,169.1L346.1,169.1z"/>
		<path class="st19" d="M436.1,225.2c-1.2,0-2.4-0.3-3.4-0.9l-24-14.1c-3.3-1.9-4.4-6.1-2.5-9.4c1.9-3.3,6.1-4.4,9.4-2.5l24.1,14.2
			c3.3,1.9,4.4,6.1,2.5,9.4C440.7,223.9,438.5,225.2,436.1,225.2z M389.1,197.1c-1.2,0-2.4-0.3-3.4-0.9l-24-14.1
			c-3.3-1.9-4.4-6.1-2.5-9.4c1.9-3.3,6.1-4.4,9.4-2.5l24.1,14.1c3.3,1.9,4.4,6.1,2.5,9.4C393.8,195.8,391.6,197.1,389.1,197.1
			L389.1,197.1L389.1,197.1z M343.3,170.1c-1.2,0-2.4-0.3-3.4-0.9l-24.1-14.1c-3.3-1.9-4.3-6.1-2.4-9.4c1.9-3.2,6-4.3,9.3-2.5
			l24.1,14.2c3.3,1.9,4.4,6.1,2.4,9.4C347.9,168.9,345.7,170.2,343.3,170.1L343.3,170.1L343.3,170.1z"/>
	</g>
	<path class="st21" d="M287.2,96.2v369.6c0,5.5,2.9,10.6,7.7,13.3l163.5,91.8c3.4,1.9,7.7,0.8,9.6-2.6c0.6-1.1,0.9-2.2,0.9-3.5
		L297.8,90.1c-3.3-2-7.6-0.9-9.6,2.5C287.6,93.7,287.2,94.9,287.2,96.2z"/>
</g>
</svg>
